<?xml version="1.0" encoding="utf-8"?>
<!-- Generator: Adobe Illustrator 24.1.2, SVG Export Plug-In . SVG Version: 6.00 Build 0)  -->
<svg version="1.1" id="prefix__facebook" xmlns="http://www.w3.org/2000/svg" xmlns:xlink="http://www.w3.org/1999/xlink" x="0px"
	 y="0px" viewBox="0 0 37.167 37.167" style="enable-background:new 0 0 37.167 37.167;" xml:space="preserve">
<style type="text/css">
	.st0{fill:#9F785C;}
</style>
<g id="prefix__Group_5">
	<path id="prefix__Path_3436" class="st0" d="M27.846,0H9.292C4.159,0.024,0.008,4.188,0,9.321v18.554
		c0.02,5.123,4.169,9.272,9.292,9.292h18.554c5.143-0.011,9.31-4.178,9.321-9.321V9.321C37.156,4.178,32.989,0.011,27.846,0z
		 M23.568,18.583h-3.51v11.5h-4.424v-11.5h-2.36v-4.72h2.065v-2.005c-0.173-2.517,1.726-4.698,4.243-4.871
		c0.227-0.016,0.456-0.014,0.683,0.004h3.628v3.923h-2.566c-0.413,0-0.973,0.265-0.973,1.18v1.77h3.628L23.568,18.583z"/>
</g>
</svg>
