<?xml version="1.0" encoding="utf-8"?>
<!-- Generator: Adobe Illustrator 24.1.3, SVG Export Plug-In . SVG Version: 6.00 Build 0)  -->
<svg version="1.1" id="Layer_1" xmlns="http://www.w3.org/2000/svg" xmlns:xlink="http://www.w3.org/1999/xlink" x="0px" y="0px"
	 viewBox="0 0 20 20" style="enable-background:new 0 0 20 20;" xml:space="preserve">
<style type="text/css">
	.st0{fill:#FFFFFF;}
</style>
<g id="prefix__Group_2895" transform="translate(-1255.5 -201.5)">
	<path id="prefix__Path_3762" class="st0" d="M1271.86,216.33c-1.43-1.74-4.9-2.33-6.36-2.33s-4.93,0.59-6.36,2.33
		c-2.68-3.513-2.005-8.533,1.507-11.213c3.513-2.68,8.533-2.005,11.213,1.507C1274.047,209.49,1274.047,213.464,1271.86,216.33z
		 M1260.57,217.78c0.43-0.9,3.05-1.78,4.93-1.78s4.51,0.88,4.93,1.78C1267.543,220.073,1263.457,220.073,1260.57,217.78
		L1260.57,217.78z M1265.5,201.5c-5.523,0-10,4.477-10,10s4.477,10,10,10s10-4.477,10-10S1271.023,201.5,1265.5,201.5z"/>
	<path id="prefix__Path_3763" class="st0" d="M1265.5,210.5c-0.828,0-1.5-0.672-1.5-1.5s0.672-1.5,1.5-1.5s1.5,0.672,1.5,1.5
		S1266.328,210.5,1265.5,210.5z M1265.5,205.5c-1.933,0-3.5,1.567-3.5,3.5s1.567,3.5,3.5,3.5s3.5-1.567,3.5-3.5
		c0.005-1.928-1.554-3.495-3.482-3.5C1265.512,205.5,1265.506,205.5,1265.5,205.5z"/>
</g>
</svg>
