<svg xmlns="http://www.w3.org/2000/svg" id="prefix__instagram" width="36.515" height="36.515" viewBox="0 0 36.515 36.515">
    <defs>
        <style>
            .prefix__cls-1{fill:#FFFFFF}
        </style>
    </defs>
    <path id="prefix__Path_3437" d="M111.326 91H94.209A3.213 3.213 0 0 0 91 94.209v17.116a3.213 3.213 0 0 0 3.209 3.209h17.117a3.213 3.213 0 0 0 3.209-3.209V94.209A3.213 3.213 0 0 0 111.326 91zm-8.558 19.256a7.488 7.488 0 1 1 7.488-7.488 7.5 7.5 0 0 1-7.488 7.488zm7.488-12.837a2.14 2.14 0 1 1 2.14-2.14 2.142 2.142 0 0 1-2.14 2.14zm0 0" class="prefix__cls-1" data-name="Path 3437" transform="translate(-84.51 -84.51)"/>
    <path id="prefix__Path_3438" d="M186.349 181a5.349 5.349 0 1 0 5.349 5.349 5.355 5.355 0 0 0-5.349-5.349zm0 0" class="prefix__cls-1" data-name="Path 3438" transform="translate(-168.091 -168.091)"/>
    <path id="prefix__Path_3439" d="M31.095 0H5.42A5.478 5.478 0 0 0 0 5.42v25.675a5.478 5.478 0 0 0 5.42 5.42h25.675a5.478 5.478 0 0 0 5.42-5.42V5.42A5.478 5.478 0 0 0 31.095 0zm1.07 26.816a5.355 5.355 0 0 1-5.349 5.349H9.7a5.355 5.355 0 0 1-5.35-5.349V9.7A5.355 5.355 0 0 1 9.7 4.35h17.116a5.355 5.355 0 0 1 5.349 5.35zm0 0" class="prefix__cls-1" data-name="Path 3439"/>
</svg>
