<?xml version="1.0" encoding="utf-8"?>
<!-- Generator: Adobe Illustrator 24.1.3, SVG Export Plug-In . SVG Version: 6.00 Build 0)  -->
<svg version="1.1" id="prefix__facebook" xmlns="http://www.w3.org/2000/svg" xmlns:xlink="http://www.w3.org/1999/xlink" x="0px"
	 y="0px" viewBox="0 0 35.945 35.945" style="enable-background:new 0 0 35.945 35.945;" xml:space="preserve">
<style type="text/css">
	.st0{fill:#FFFFFF;}
</style>
<g id="prefix__Group_5">
	<path id="prefix__Path_3436" class="st0" d="M26.93,0H8.986C4.021,0.023,0.007,4.05,0,9.015v17.943
		c0.02,4.955,4.031,8.966,8.986,8.986H26.93c4.975-0.01,9.005-4.04,9.015-9.015V9.015C35.935,4.04,31.905,0.01,26.93,0z
		 M22.793,17.972H19.4V29.1h-4.28V17.972h-2.283v-4.564h2v-1.94c-0.168-2.434,1.67-4.543,4.104-4.711
		c0.219-0.015,0.44-0.014,0.659,0.004h3.509v3.794h-2.484c-0.4,0-0.941,0.257-0.941,1.141v1.712h3.509L22.793,17.972z"/>
</g>
</svg>
