<svg xmlns="http://www.w3.org/2000/svg" viewBox="0 0 35.945 35.944"><defs><style>.a{fill:#fff;}</style></defs><path class="a" d="M26.957.028H9.014A9.028,9.028,0,0,0,.027,9.043V26.986a9.023,9.023,0,0,0,8.987,8.986H26.957a9.034,9.034,0,0,0,9.016-9.015V9.043A9.034,9.034,0,0,0,26.957.028Zm.42,13.086v.636A13.85,13.85,0,0,1,6,25.432a6.1,6.1,0,0,0,1.192.079,9.976,9.976,0,0,0,6.119-2.066A4.969,4.969,0,0,1,8.7,20.028a3.919,3.919,0,0,0,.954.079,6.969,6.969,0,0,0,1.271-.159A4.861,4.861,0,0,1,7.031,15.18V15.1a4.5,4.5,0,0,0,2.225.635A4.77,4.77,0,0,1,7.111,11.68,4.2,4.2,0,0,1,7.828,9.3a13.768,13.768,0,0,0,10.093,5.086,5.354,5.354,0,0,1-.159-1.112,4.952,4.952,0,0,1,4.927-4.927,4.74,4.74,0,0,1,3.576,1.51,8.561,8.561,0,0,0,3.1-1.113,5.143,5.143,0,0,1-2.145,2.7A11.158,11.158,0,0,0,30,10.65,7.154,7.154,0,0,1,27.377,13.114Z" transform="translate(-0.027 -0.028)"/></svg>