<svg xmlns="http://www.w3.org/2000/svg" viewBox="0 0 1784.615 349.045"><defs><style>.a{fill:#282727;}</style></defs><path class="a" d="M989.372,138.059A122.652,122.652,0,1,0,1096.164,1.375,122.654,122.654,0,0,0,989.372,138.059Zm112.683-88.572a74.18,74.18,0,0,1,82.679,64.573l0,.016a74.181,74.181,0,1,1-82.681-64.589Z" transform="translate(-135.385 0)"/><path class="a" d="M905.879,148.315c13.895,113.17,117.269,193.923,230.431,180.029s193.931-117.263,180.036-230.428A205.506,205.506,0,0,0,1277.181,0h-66.667a157.777,157.777,0,0,1,57.74,103.824c10.639,86.649-51.2,165.787-137.849,176.426v0c-86.649,10.639-165.795-51.2-176.433-137.84A158.351,158.351,0,0,1,1011.661,0H945.1A206.053,206.053,0,0,0,905.879,148.315Z" transform="translate(-135.385 0)"/><path class="a" d="M873.991,72.054q2.534-11.681,6.168-22.975l.008,0q1.8-5.622,3.887-11.138l.021-.035q2.076-5.53,4.424-10.931L647.662,86.063,287.1,174.414c-30.363,7-9.923,23.247,7.521,34.952,28.44,19.106,62.882,27.867,95.912,17.295,137.3-43.9,446.328-142.725,483.455-154.6Z" transform="translate(-135.385 0)"/><path class="a" d="M147.259,46.559c-28.3,5.057,1.325,41.786,13.32,53.468,21.574,21.183,55.4,30.491,85.424,24.514,117.111-23.347,390.38-77.893,390.38-77.893L870.6,0H526.454L150.246,46.193C149.2,46.3,148.178,46.389,147.259,46.559Z" transform="translate(-135.385 0)"/><path class="a" d="M892.572,229.08l-.1-.232q-2.421-5.03-4.619-10.174l-.15-.362q-2.175-5.133-4.135-10.383l-.122-.331q-1.963-5.321-3.711-10.765L670.225,312.153c-25.085,15.767,16.433,22.2,30.707,24.321,34.461,4.921,65.747,4.837,95.657-17.519l28.68-23.119,72.442-56.708Q895.026,234.169,892.572,229.08Z" transform="translate(-135.385 0)"/><path class="a" d="M997.4,337.227c-1.012-.535-2.011-1.087-3.009-1.632h-.008q-3.87-2.131-7.651-4.407l-.009-.008c-1.352-.806-2.71-1.6-4.039-2.437-2.456-1.543-4.877-3.141-7.275-4.765-.567-.384-1.149-.766-1.724-1.156q-3.348-2.308-6.6-4.73c-.689-.508-1.367-1.01-2.049-1.52q-3.187-2.412-6.3-4.926c-.649-.525-1.291-1.06-1.942-1.6-2.109-1.735-4.194-3.5-6.247-5.312-.47-.412-.925-.833-1.39-1.255a244.242,244.242,0,0,1-27.122-28.542l-51.74,50c-19.244,15.585,8.434,23.4,27.2,23.977,33.646,1.025,91.737-4.23,111.056-6.1q-5.65-2.655-11.147-5.583Z" transform="translate(-135.385 0)"/><path class="a" d="M870.326,152.838h0c-.448-3.644-.777-7.271-1.058-10.893-.1-1.329-.178-2.655-.265-3.978-.129-2.258-.234-4.519-.311-6.766-.047-1.585-.117-3.174-.139-4.753q-.066-4.65.041-9.257l.007-.017C827.48,132.29,596.052,217.3,491.287,255.783c-54.854,22.363,4.175,39.31,31.989,45.228,24.893,4.68,50.122,2.107,72.382-8.887L870.815,156.148C870.67,155.036,870.462,153.95,870.326,152.838Z" transform="translate(-135.385 0)"/><path class="a" d="M1328.837,16.215l506.5,33.048c32.535,2.132,62.152-12.624,84.667-35.52V0H1320.074q4.678,7.913,8.762,16.206Z" transform="translate(-135.385 0)"/><path class="a" d="M1584.637,199.878l-231.183-61.211q-.366,5.7-1,11.343l-.04.351q-.618,5.567-1.5,11.075l-.06.387c-.584,3.688-1.264,7.346-2.011,10.988l-.053.251q-1.155,5.532-2.547,10.993l84,37.5,33.42,15.5c34.43,14.455,64.808,6.969,97.055-6.143C1574.063,225.4,1612.8,209.106,1584.637,199.878Z" transform="translate(-135.385 0)"/><path class="a" d="M1393.613,260.681l-62.3-35.995a244.307,244.307,0,0,1-19.4,34.255c-.356.522-.7,1.04-1.052,1.555-1.545,2.257-3.151,4.471-4.777,6.664-.493.68-.994,1.355-1.5,2.021q-2.417,3.194-4.926,6.305c-.538.66-1.075,1.311-1.612,1.969-1.73,2.087-3.478,4.155-5.27,6.189-.463.517-.93,1.028-1.393,1.538-1.935,2.156-3.889,4.291-5.906,6.383-1.088,1.131-2.214,2.233-3.33,3.342l-.007.01q-3.117,3.123-6.357,6.128c-.85.771-1.684,1.548-2.537,2.312l0,0q-4.626,4.172-9.466,8.114c19.2-2.859,76.833-11.813,109.241-20.949C1391.1,285.422,1416.056,271.147,1393.613,260.681Z" transform="translate(-135.385 0)"/><path class="a" d="M1744.631,101.892C1633.668,89.9,1388.54,63.4,1344.992,58.681l0,.015q1.22,4.445,2.279,8.973c.362,1.537.685,3.095,1.016,4.644.477,2.2.921,4.418,1.334,6.641.243,1.3.486,2.61.7,3.925.613,3.581,1.162,7.181,1.609,10.824h0c.137,1.112.207,2.216.327,3.33L1652.143,162.4c24.259,5.282,49.362,1.675,72.383-8.888C1750.081,141.045,1803.265,110.32,1744.631,101.892Z" transform="translate(-135.385 0)"/></svg>