<svg xmlns="http://www.w3.org/2000/svg" viewBox="0 0 38 38"><defs><style>.a{fill:#9f785c;}</style></defs><path class="a" d="M28.47,0H9.5A9.545,9.545,0,0,0,0,9.53V28.5A9.537,9.537,0,0,0,9.5,38H28.47A9.551,9.551,0,0,0,38,28.47V9.53A9.551,9.551,0,0,0,28.47,0Zm-.093,14.116v.636A13.849,13.849,0,0,1,7,26.434a6.049,6.049,0,0,0,1.192.079,9.974,9.974,0,0,0,6.119-2.066A4.969,4.969,0,0,1,9.7,21.03a3.894,3.894,0,0,0,.954.079,6.9,6.9,0,0,0,1.271-.159,4.86,4.86,0,0,1-3.894-4.768V16.1a4.5,4.5,0,0,0,2.225.635,4.769,4.769,0,0,1-2.145-4.053A4.205,4.205,0,0,1,8.828,10.3a13.765,13.765,0,0,0,10.093,5.086,5.326,5.326,0,0,1-.159-1.112,4.952,4.952,0,0,1,4.927-4.927,4.745,4.745,0,0,1,3.576,1.51,8.537,8.537,0,0,0,3.1-1.113,5.141,5.141,0,0,1-2.145,2.7A11.135,11.135,0,0,0,31,11.652,7.146,7.146,0,0,1,28.377,14.116Z" transform="translate(0)"/></svg>