<?xml version="1.0" encoding="UTF-8"?>
<svg xmlns="http://www.w3.org/2000/svg" width="679.4" height="126.79" viewBox="0 0 679.4 126.79">
  <title>logo-white</title>
  <path d="M228.77,126.8,149.84,0,113.76,58,77.67,0,0,124.77h10.1L77.67,16.23l31,49.85L70.91,126.8ZM149.84,16.23l63.48,102H151.26L118.81,66.08Zm-8.68,102H86.35l27.41-44Z" transform="translate(-0.01 -0.01)" fill="#fff"></path>
  <path d="M298.09,84.57l6.77,6.77A29.24,29.24,0,0,1,294.09,100a33.22,33.22,0,0,1-14.65,3.21,33.8,33.8,0,0,1-13.06-2.46,30.76,30.76,0,0,1-17.06-17.29,36.32,36.32,0,0,1,.05-26.2,30.9,30.9,0,0,1,6.9-10.42A31.71,31.71,0,0,1,266.69,40a33.92,33.92,0,0,1,13-2.47,32.37,32.37,0,0,1,14.51,3.21,29.46,29.46,0,0,1,10.64,8.67l-6.77,6.77a22.6,22.6,0,0,0-7.74-7.08,21.53,21.53,0,0,0-10.64-2.6,21,21,0,0,0-11.35,3.13,22.28,22.28,0,0,0-7.91,8.48,25.41,25.41,0,0,0-2.9,12.31,25.23,25.23,0,0,0,2.9,12.23,22.23,22.23,0,0,0,7.91,8.49,22.47,22.47,0,0,0,22,.48A23.3,23.3,0,0,0,298.09,84.57Z" transform="translate(-0.01 -0.01)" fill="#fff"></path>
  <path d="M355.43,101.81H314.8V38.93h10.11V93h30.52Z" transform="translate(-0.01 -0.01)" fill="#fff"></path>
  <path d="M408.37,101.81H365.1V38.93h43.27v8.62H375.21V93.19h33.16ZM406.7,74.2H374.33V65.58H406.7Z" transform="translate(-0.01 -0.01)" fill="#fff"></path>
  <path d="M476,101.81H465.27l-21.55-56h3.34l-21.54,56H415.14L440,38.93h11.08ZM463.51,86.68H427.27V78.07h36.24Z" transform="translate(-0.01 -0.01)" fill="#fff"></path>
  <path d="M495.26,101.81h-9.85V38.93h10.73l35.7,52.94h-3.43V38.93h9.85v62.88H527.53L491.74,48.87h3.52Z" transform="translate(-0.01 -0.01)" fill="#fff"></path>
  <path d="M561.65,101.81H551.54V38.93h41.51v8.62h-31.4ZM591.38,74.2H560.77V65.58h30.61Z" transform="translate(-0.01 -0.01)" fill="#fff"></path>
  <path d="M613.28,101.81H603.16V38.93h10.12Z" transform="translate(-0.01 -0.01)" fill="#fff"></path>
  <path d="M636.4,101.81h-9.84V38.93h10.72L673,91.87h-3.43V38.93h9.85v62.88H668.68L632.89,48.87h3.51Z" transform="translate(-0.01 -0.01)" fill="#fff"></path>
</svg>
